# xmcd
#
# Track frame offsets: 
#        150
#        17502
#        35677
#        55258
#        73326
#        92761
#        111535
#        132662
#        149184
#        165521
#
# Disc length: 2430 seconds
#
# Revision: 0
# Processed by: cddbd v1.5.2PL0 Copyright (c) Steve Scherf et al.
# Submitted via: ExactAudioCopy v1.0b4
#
DISCID=9c097c0a
DTITLE=Bobby Womack - So Many Rivers (LP)
DYEAR=1985
DGENRE=Blues
TTITLE0=I Wish He Didn' t Trust Me So Much
TTITLE1=So Baby, Don't Leave Home Without It
TTITLE2=So Many Rivers
TTITLE3=Got To Be with You Tonight
TTITLE4=Gypsy Woman
TTITLE5=Whatever Happened To The Times
TTITLE6=Let Me Kiss It Where It Hurts
TTITLE7=Only Survivor
TTITLE8=That's Where It's At
TTITLE9=Check It Out
EXTD=
EXTT0=
EXTT1=
EXTT2=
EXTT3=
EXTT4=
EXTT5=
EXTT6=
EXTT7=
EXTT8=
EXTT9=
PLAYORDER=
